<?xml version="1.0" encoding="utf-8"?>
<?xml-stylesheet type="text/xsl" href="rss1.xsl"?>
<rss version="2.0" xmlns:atom="http://www.w3.org/2005/Atom" xmlns:content="http://purl.org/rss/1.0/modules/content/" xmlns:dc="http://purl.org/dc/elements/1.1/" xmlns:media="http://search.yahoo.com/mrss/">
<channel>
 <title>Getty</title>
 <link>http://www.gettyimg.com/</link>
 <atom:link href="http://www.gettyimg.com/" rel="self" type="application/rss+xml" />

 
                <item>
                <title><![CDATA[【Requests】[REQ AUD] - Lighthouse Family - High (Remixes) in FLAC/WAV]]></title>
                <link><![CDATA[https://sharemania.us/threads/lighthouse-family-high-remixes-in-flac-wav.250585/]]></link>
                <description><![CDATA[<article>
<blockquote class="messageText SelectQuoteContainer ugc baseHtml">
Looking for this remix pack that was released this year. It has 18 remixes and the link is here:<br>
<br>
<a href="https://www.deezer.com/us/album/591392812" target="_blank" class="externalLink" rel="nofollow">https://www.deezer.com/us/album/591392812</a><br>
<br>
If anyone can help me, would be eternally grateful. Thank you in advance.
<div class="messageTextEndMarker">&nbsp;</div>
</blockquote>
</article>]]></description>
                <author><![CDATA[chicagoboyrn00]]></author>
                </item>

                
                <item>
                <title><![CDATA[【Albums (lossless)】ALAC - Ariana Grande - My Everything (Japanese Deluxe Edition) (2014) [Apple Lossless 24 bits/44,1 kHz]]]></title>
                <link><![CDATA[https://sharemania.us/threads/ariana-grande-my-everything-japanese-deluxe-edition-2014-apple-lossless-24-bits-44-1-khz.250583/]]></link>
                <description><![CDATA[<article>
<blockquote class="messageText SelectQuoteContainer ugc baseHtml">
<img src="https://a5.mzstatic.com/us/r1000/0/Music124/v4/a4/0b/bb/a40bbba8-91de-669d-f6d5-628984bb715b/14UMGIM28137.rgb.jpg" class="bbCodeImage LbImage" alt="[​IMG]" data-url="https://a5.mzstatic.com/us/r1000/0/Music124/v4/a4/0b/bb/a40bbba8-91de-669d-f6d5-628984bb715b/14UMGIM28137.rgb.jpg" style=""><br>
<div class="ToggleTriggerAnchor bbCodeSpoilerContainer">
<button type="button" class="button bbCodeSpoilerButton ToggleTrigger Tooltip JsOnly" data-target="> .SpoilerTarget"><span>Spoiler: <span class="SpoilerTitle">MediaInfo</span></span></button>
<div class="SpoilerTarget bbCodeSpoilerText">
<div class="bbCodeBlock bbCodeCode">
<div class="type">Code:</div>
<pre>General
Format                                   : MPEG-4
Format profile                           : Apple audio with iTunes info
Codec ID                                 : M4A  (M4A /mp42/isom)
File size                                : 39.7 MiB
Duration                                 : 3 min 13 s
Overall bit rate mode                    : Variable
Overall bit rate                         : 1 718 kb/s
Album                                    : My Everything (Japanese Deluxe Edition)
Album/Performer                          : アリアナ・グランデ
Part/Position                            : 1
Part/Total                               : 1
Track name                               : Problem (feat. Iggy Azalea)
Track name/Position                      : 2
Track name/Total                         : 18
Performer                                : アリアナ・グランデ
Composer                                 : イギー・アゼリア, イリヤ, マックス・マーティン &amp; サヴァン・コテチャ
Genre                                    : ポップ / ミュージック
ContentType                              : Music
Description                              : 2010年代を代表するポップディーバ誕生を告げたセカンドアルバム。マックス・マーティンやライアン・テダーら豪華ブレーンが集結して練り上げたプロダクションを背景に、ティーンアイドルから成熟したアーティストへと成長を遂げたアリアナのパワフルな歌唱が際立っている。デヴィッド・ゲッタを共作に迎えた"One Last Time"や、Zeddとのコラボ曲"Break Free"のようなEDMに加え、イギー・アゼリアやChildish Gambinoらを迎えてヒップホップ色もより強化されている。その一方で、マライア・キャリーを思わせる1990年代風R&amp;Bポップや、ザ・ウィークエンドをゲストに迎えた"Love Me Harder"のシンセウェイヴにも顕著な1980年代エレポップへのオマージュなど、後の作品に比べてノスタルジックなポップ志向が強いのも本作の特徴だろう。
Recorded date                            : 2014-07-04
Encoded date                             : 2024-03-14 18:07:59 UTC
Tagged date                              : 2024-07-21 16:42:47 UTC
ISRC                                     : USUM71405403
Copyright                                : ℗ 2014 Republic Records, a division of UMG Recordings, Inc.
Cover                                    : Yes
Rating                                   : Clean
gita                                     : ILYA
besu                                     : ILYA
satsukusu                                : Leon Silva
UPC                                      : 00602537930227
mikishinguenzinia                        : Serban Ghenea / John Hanes
enzinia                                  : Peter Carlsson / Greg Rominiecki / Sam Holland
puroguramingu                            : Shellback / ILYA / マックス・マーティン
kibodo                                   : Shellback / ILYA / マックス・マーティン
purodeyusa                               : マックス・マーティン / ILYA / Shellback
bokarupurodeyusa                         : マックス・マーティン / Peter Carlsson / ILYA
ridobokaru                               : アリアナ・グランデ / イギー・アゼリア
batsukuguraundobokaru                    : サヴァン・コテチャ / ILYA / イギー・アゼリア / ビッグ・ショーン
songuraita                               : サヴァン・コテチャ / マックス・マーティン / アリアナ・グランデ / Amethyst Kelly / イリア・サルマンザデ
GenreID                                  : 14
AppleStoreCountry                        : Japan
cmID                                     : 20505919
AlbumTitleID                             : 412778295
PlayListID                               : 1440859339
AppleStoreCatalogID                      : 1440859636
pub                                      : Universal Records
Vendor                                   : Universal:isrc:USUM71405403

Audio
ID                                       : 1
Format                                   : ALAC
Codec ID                                 : alac
Codec ID/Info                            : Apple Lossless Audio Codec
Duration                                 : 3 min 13 s
Duration_LastFrame                       : -33 ms
Bit rate mode                            : Variable
Bit rate                                 : 1 712 kb/s
Nominal bit rate                         : 2 117 kb/s
Channel(s)                               : 2 channels
Sampling rate                            : 44.1 kHz
Bit depth                                : 24 bits
Stream size                              : 39.6 MiB (100%)
Title                                    : Core Media Audio
Encoded date                             : 2024-03-14 18:07:59 UTC
Tagged date                              : 2024-07-21 16:42:47 UTC
</pre>
</div></div>
</div><b>Released:</b> July 4, 2014<br>
<b>Source:</b> Apple<br>
<b>File Size:</b> 739 MB<br>
<b>Tracklist:</b><br>
01 Intro<br>
02 Problem (feat. Iggy Azalea)<br>
03 One Last Time<br>
04 Why Try<br>
05 Break Free (feat. Zedd)<br>
06 Best Mistake (feat. Big Sean)<br>
07 Be My Baby (feat. Cashmere Cat)<br>
08 Break Your Heart Right Back (feat. Childish Gambino)<br>
09 Love Me Harder<br>
10 Just a Little Bit of Your Heart<br>
11 Hands On Me (feat. A$AP Ferg)<br>
12 My Everything<br>
13 Bang Bang<br>
14 Only 1<br>
15 You Don't Know Me<br>
16 Cadillac Song<br>
17 Too Close<br>
18 Baby I (feat. Taro Hakase)<br>
<div class="bbCodeBlock bbCodeVfcHH HiddenContent">
<div class="attribution type">Hidden Content:</div>
<blockquote>You must reply before you can see the hidden data contained here.</blockquote>
</div>
<div class="messageTextEndMarker">&nbsp;</div>
</blockquote>
</article>]]></description>
                <author><![CDATA[itunesboy]]></author>
                </item>

                
                <item>
                <title><![CDATA[【Albums (lossless)】ALAC - Ariana Grande - Dangerous Woman (Japanese Edition) (2016) [Apple Lossless 24 bits/44,1 kHz]]]></title>
                <link><![CDATA[https://sharemania.us/threads/ariana-grande-dangerous-woman-japanese-edition-2016-apple-lossless-24-bits-44-1-khz.250584/]]></link>
                <description><![CDATA[<article>
<blockquote class="messageText SelectQuoteContainer ugc baseHtml">
<img src="https://a5.mzstatic.com/us/r1000/0/Music124/v4/09/ce/24/09ce24b1-1e10-e4e2-3d9d-7fc6e90953f5/16UMGIM13477.rgb.jpg" class="bbCodeImage LbImage" alt="[​IMG]" data-url="https://a5.mzstatic.com/us/r1000/0/Music124/v4/09/ce/24/09ce24b1-1e10-e4e2-3d9d-7fc6e90953f5/16UMGIM13477.rgb.jpg" style=""><br>
<div class="ToggleTriggerAnchor bbCodeSpoilerContainer">
<button type="button" class="button bbCodeSpoilerButton ToggleTrigger Tooltip JsOnly" data-target="> .SpoilerTarget"><span>Spoiler: <span class="SpoilerTitle">MediaInfo</span></span></button>
<div class="SpoilerTarget bbCodeSpoilerText">
<div class="bbCodeBlock bbCodeCode">
<div class="type">Code:</div>
<pre>General
Format                                   : MPEG-4
Format profile                           : Apple audio with iTunes info
Codec ID                                 : M4A  (M4A /mp42/isom)
File size                                : 45.4 MiB
Duration                                 : 3 min 46 s
Overall bit rate mode                    : Variable
Overall bit rate                         : 1 685 kb/s
Album                                    : Dangerous Woman
Album/Performer                          : アリアナ・グランデ
Part/Position                            : 1
Part/Total                               : 1
Track name                               : Side To Side (feat. Nicki Minaj)
Track name/Position                      : 5
Track name/Total                         : 16
Performer                                : アリアナ・グランデ
Composer                                 : アリアナ・グランデ, マックス・マーティン, ニッキー・ミナージュ, サヴァン・コテチャ, アレクサンダー・クロンランド &amp; イリア・サルマンザデ
Genre                                    : ポップ / ミュージック
ContentType                              : Music
Description                              : アリアナ・グランデのサードアルバム「Dangerous Woman」は、メイシー・グレイ、ニッキー・ミナージュ、リル・ウェイン、フューチャーといったフィーチャリング・アーティストに象徴されるように、R&amp;B／ヒップホップ色が前2作よりも色濃く出ているのが特徴。彼女の歌声も、そうした方向性に呼応するように今まで以上にソウルフルで、"Let Me Love You" のような静の部分と "Into You" のような動の部分を行き来するダイナミックな表現力が楽しめる。デビュー当初のはじけるようなポップネスや、一聴してヒップに感じられる最先端のビートは控えめになった分、深く長く聴くことができるタイムレスな魅力を持った作品に仕上がっている。
Recorded date                            : 2016-05-20
Encoded date                             : 2024-03-12 01:14:48 UTC
Tagged date                              : 2024-03-12 01:14:48 UTC
ISRC                                     : USUM71602107
Copyright                                : ℗ 2016 Republic Records, a division of UMG Recordings, Inc.
Cover                                    : Yes
Rating                                   : Explicit
UPC                                      : 00602547864215
mikishinguenzinia                        : Serban Ghenea
bokarurekodeinguenzinia                  : Aubry "Big Juice" Delaine
enzinia                                  : Sam Holland / John Hanes
ashisutantorekodeinguenzinia             : Jordon Silva / Joel Metzler
puroguramingu                            : ILYA / マックス・マーティン
kibodo                                   : ILYA / マックス・マーティン
gita                                     : ILYA / マックス・マーティン
besu                                     : ILYA / マックス・マーティン
pakatsushiyon                            : ILYA / マックス・マーティン
purodeyusa                               : マックス・マーティン / ILYA
batsukuguraundobokaru                    : Chonita Gilbert / サヴァン・コテチャ / Taura Stinson / Joi Gilliam
bokaru                                   : アリアナ・グランデ / ニッキー・ミナージュ
songuraita                               : サヴァン・コテチャ / マックス・マーティン / アレクサンダー・クロンランド / アリアナ・グランデ / オニーカ・マラージ / イリア・サルマンザデ
GenreID                                  : 14
AppleStoreCountry                        : Japan
cmID                                     : 383352316
AlbumTitleID                             : 412778295
PlayListID                               : 1440844899
AppleStoreCatalogID                      : 1440845118
pub                                      : Universal Records
Vendor                                   : Universal:isrc:USUM71602107

Audio
ID                                       : 1
Format                                   : ALAC
Codec ID                                 : alac
Codec ID/Info                            : Apple Lossless Audio Codec
Duration                                 : 3 min 46 s
Duration_LastFrame                       : -77 ms
Bit rate mode                            : Variable
Bit rate                                 : 1 679 kb/s
Nominal bit rate                         : 2 117 kb/s
Channel(s)                               : 2 channels
Sampling rate                            : 44.1 kHz
Bit depth                                : 24 bits
Stream size                              : 45.3 MiB (100%)
Title                                    : Core Media Audio
Encoded date                             : 2024-03-12 01:14:48 UTC
Tagged date                              : 2024-03-12 01:14:48 UTC
</pre>
</div></div>
</div><b>Released:</b> May 20, 2016<br>
<b>Source:</b> Apple<br>
<b>File Size:</b> 713 MB<br>
<b>Tracklist:</b><br>
01 Moonlight<br>
02 Dangerous Woman<br>
03 Be Alright<br>
04 Into You<br>
05 Side To Side (feat. Nicki Minaj) <img src="https://i.ibb.co/ByCVBzP/e.png" class="bbCodeImage LbImage" alt="[​IMG]" data-url="https://i.ibb.co/ByCVBzP/e.png" style=""><br>
06 Let Me Love You (feat. Lil Wayne)<br>
07 Greedy<br>
08 Leave Me Lonely (feat. Macy Gray)<br>
09 Everyday (feat. Future) <img src="https://i.ibb.co/ByCVBzP/e.png" class="bbCodeImage LbImage" alt="[​IMG]" data-url="https://i.ibb.co/ByCVBzP/e.png" style=""><br>
10 Sometimes<br>
11 I Don't Care <img src="https://i.ibb.co/ByCVBzP/e.png" class="bbCodeImage LbImage" alt="[​IMG]" data-url="https://i.ibb.co/ByCVBzP/e.png" style=""><br>
12 Bad Decisions <img src="https://i.ibb.co/ByCVBzP/e.png" class="bbCodeImage LbImage" alt="[​IMG]" data-url="https://i.ibb.co/ByCVBzP/e.png" style=""><br>
13 Touch It<br>
14 Knew Better / Forever Boy<br>
15 Thinking Bout You <img src="https://i.ibb.co/ByCVBzP/e.png" class="bbCodeImage LbImage" alt="[​IMG]" data-url="https://i.ibb.co/ByCVBzP/e.png" style=""><br>
16 Focus<br>
<div class="bbCodeBlock bbCodeVfcHH HiddenContent">
<div class="attribution type">Hidden Content:</div>
<blockquote>You must reply before you can see the hidden data contained here.</blockquote>
</div>
<div class="messageTextEndMarker">&nbsp;</div>
</blockquote>
</article>]]></description>
                <author><![CDATA[itunesboy]]></author>
                </item>

                </channel></rss>